REM DIRINDEX 1\2,1\3
REM DIRNAME cjc116,folder01,folder02
TITLE ""
FILE "Disc2Track14.mp3" MP3
  TRACK 01 AUDIO
    TITLE "0:"
    INDEX 01 00:00:00
  TRACK 02 AUDIO
    TITLE "3:cjc116_3327"
    INDEX 01 00:00:03
  TRACK 03 AUDIO
    TITLE "0:"
    INDEX 01 00:01:66
  TRACK 04 AUDIO
    TITLE "2:cjc116_3328"
    INDEX 01 00:02:45
  TRACK 05 AUDIO
    TITLE "0:"
    INDEX 01 00:03:64
  TRACK 06 AUDIO
    TITLE "2:cjc116_3329"
    INDEX 01 00:03:72
  TRACK 07 AUDIO
    TITLE "0:"
    INDEX 01 00:08:09
  TRACK 08 AUDIO
    TITLE "2:cjc116_3330"
    INDEX 01 00:08:50
  TRACK 09 AUDIO
    TITLE "0:"
    INDEX 01 00:09:69
  TRACK 10 AUDIO
    TITLE "2:cjc116_3331"
    INDEX 01 00:10:12
  TRACK 11 AUDIO
    TITLE "0:"
    INDEX 01 00:14:21
  TRACK 12 AUDIO
    TITLE "2:cjc116_3332"
    INDEX 01 00:14:66
  TRACK 13 AUDIO
    TITLE "0:"
    INDEX 01 00:16:04
  TRACK 14 AUDIO
    TITLE "2:cjc116_3333"
    INDEX 01 00:16:14
  TRACK 15 AUDIO
    TITLE "0:"
    INDEX 01 00:19:30
  TRACK 16 AUDIO
    TITLE "2:cjc116_3334"
    INDEX 01 00:19:69
  TRACK 17 AUDIO
    TITLE "0:"
    INDEX 01 00:21:09
  TRACK 18 AUDIO
    TITLE "2:cjc116_3335"
    INDEX 01 00:21:17
  TRACK 19 AUDIO
    TITLE "0:"
    INDEX 01 00:25:17
  TRACK 20 AUDIO
    TITLE "2:cjc116_3336"
    INDEX 01 00:25:56
  TRACK 21 AUDIO
    TITLE "0:"
    INDEX 01 00:26:60
  TRACK 22 AUDIO
    TITLE "2:cjc116_3337"
    INDEX 01 00:27:02
  TRACK 23 AUDIO
    TITLE "0:"
    INDEX 01 00:30:61
  TRACK 24 AUDIO
    TITLE "2:cjc116_3338"
    INDEX 01 00:31:33
  TRACK 25 AUDIO
    TITLE "0:"
    INDEX 01 00:32:45
  TRACK 26 AUDIO
    TITLE "2:cjc116_3339"
    INDEX 01 00:32:60
  TRACK 27 AUDIO
    TITLE "0:"
    INDEX 01 00:36:54
  TRACK 28 AUDIO
    TITLE "2:cjc116_3340"
    INDEX 01 00:37:20
  TRACK 29 AUDIO
    TITLE "0:"
    INDEX 01 00:38:18
  TRACK 30 AUDIO
    TITLE "2:cjc116_3341"
    INDEX 01 00:38:45
  TRACK 31 AUDIO
    TITLE "0:"
    INDEX 01 00:43:13
  TRACK 32 AUDIO
    TITLE "2:cjc116_3342"
    INDEX 01 00:43:54
  TRACK 33 AUDIO
    TITLE "0:"
    INDEX 01 00:44:61
  TRACK 34 AUDIO
    TITLE "2:cjc116_3343"
    INDEX 01 00:45:06
  TRACK 35 AUDIO
    TITLE "0:"
    INDEX 01 00:49:31
  TRACK 36 AUDIO
    TITLE "2:cjc116_3344"
    INDEX 01 00:49:72
  TRACK 37 AUDIO
    TITLE "0:"
    INDEX 01 00:50:70
  TRACK 38 AUDIO
    TITLE "2:cjc116_3345"
    INDEX 01 00:51:11
  TRACK 39 AUDIO
    TITLE "0:"
    INDEX 01 00:54:36
  TRACK 40 AUDIO
    TITLE "2:cjc116_3346"
    INDEX 01 00:55:01
  TRACK 41 AUDIO
    TITLE "0:"
    INDEX 01 00:56:04
  TRACK 42 AUDIO
    TITLE "2:cjc116_3347"
    INDEX 01 00:56:18
  TRACK 43 AUDIO
    TITLE "0:"
    INDEX 01 01:00:66
  TRACK 44 AUDIO
    TITLE "2:cjc116_3348"
    INDEX 01 01:01:34
  TRACK 45 AUDIO
    TITLE "0:"
    INDEX 01 01:02:28
  TRACK 46 AUDIO
    TITLE "2:cjc116_3349"
    INDEX 01 01:02:59
  TRACK 47 AUDIO
    TITLE "0:"
    INDEX 01 01:06:38
  TRACK 48 AUDIO
    TITLE "2:cjc116_3350"
    INDEX 01 01:07:23
  TRACK 49 AUDIO
    TITLE "0:"
    INDEX 01 01:08:35
  TRACK 50 AUDIO
    TITLE "2:cjc116_3351"
    INDEX 01 01:08:52
  TRACK 51 AUDIO
    TITLE "0:"
    INDEX 01 01:13:02
  TRACK 52 AUDIO
    TITLE "2:cjc116_3352"
    INDEX 01 01:13:44
  TRACK 53 AUDIO
    TITLE "0:"
    INDEX 01 01:14:37
  TRACK 54 AUDIO
    TITLE "2:cjc116_3353"
    INDEX 01 01:14:66
  TRACK 55 AUDIO
    TITLE "0:"
    INDEX 01 01:19:19
  TRACK 56 AUDIO
    TITLE "2:cjc116_3354"
    INDEX 01 01:19:66
  TRACK 57 AUDIO
    TITLE "0:"
    INDEX 01 01:21:20
  TRACK 58 AUDIO
    TITLE "2:cjc116_3355"
    INDEX 01 01:21:31
  TRACK 59 AUDIO
    TITLE "0:"
    INDEX 01 01:24:37
  TRACK 60 AUDIO
    TITLE "2:cjc116_3356"
    INDEX 01 01:25:09
  TRACK 61 AUDIO
    TITLE "0:"
    INDEX 01 01:26:11
  TRACK 62 AUDIO
    TITLE "2:cjc116_3357"
    INDEX 01 01:26:36
  TRACK 63 AUDIO
    TITLE "0:"
    INDEX 01 01:30:71
  TRACK 64 AUDIO
    TITLE "2:cjc116_3358"
    INDEX 01 01:31:38
  TRACK 65 AUDIO
    TITLE "0:"
    INDEX 01 01:32:41
  TRACK 66 AUDIO
    TITLE "2:cjc116_3359"
    INDEX 01 01:32:55
  TRACK 67 AUDIO
    TITLE "0:"
    INDEX 01 01:36:19
  TRACK 68 AUDIO
    TITLE "2:cjc116_3360"
    INDEX 01 01:36:62
  TRACK 69 AUDIO
    TITLE "0:"
    INDEX 01 01:38:08
  TRACK 70 AUDIO
    TITLE "2:cjc116_3361"
    INDEX 01 01:38:18
  TRACK 71 AUDIO
    TITLE "0:"
    INDEX 01 01:42:24
  TRACK 72 AUDIO
    TITLE "2:cjc116_3362"
    INDEX 01 01:42:71
  TRACK 73 AUDIO
    TITLE "0:"
    INDEX 01 01:44:07
  TRACK 74 AUDIO
    TITLE "2:cjc116_3363"
    INDEX 01 01:44:17
  TRACK 75 AUDIO
    TITLE "0:"
    INDEX 01 01:47:48
  TRACK 76 AUDIO
    TITLE "2:cjc116_3364"
    INDEX 01 01:48:18
  TRACK 77 AUDIO
    TITLE "0:"
    INDEX 01 01:49:08
  TRACK 78 AUDIO
    TITLE "2:cjc116_3365"
    INDEX 01 01:49:30
  TRACK 79 AUDIO
    TITLE "0:"
    INDEX 01 01:52:63
  TRACK 80 AUDIO
    TITLE "2:cjc116_3366"
    INDEX 01 01:53:33
  TRACK 81 AUDIO
    TITLE "0:"
    INDEX 01 01:54:41
  TRACK 82 AUDIO
    TITLE "2:cjc116_3367"
    INDEX 01 01:54:52
  TRACK 83 AUDIO
    TITLE "0:"
    INDEX 01 01:58:42
  TRACK 84 AUDIO
    TITLE "2:cjc116_3368"
    INDEX 01 01:59:14
  TRACK 85 AUDIO
    TITLE "0:"
    INDEX 01 02:00:25
  TRACK 86 AUDIO
    TITLE "2:cjc116_3369"
    INDEX 01 02:00:43
  TRACK 87 AUDIO
    TITLE "0:"
    INDEX 01 02:04:43
  TRACK 88 AUDIO
    TITLE "2:cjc116_3370"
    INDEX 01 02:05:15
  TRACK 89 AUDIO
    TITLE "0:"
    INDEX 01 02:06:12
  TRACK 90 AUDIO
    TITLE "2:cjc116_3371"
    INDEX 01 02:06:40
  TRACK 91 AUDIO
    TITLE "0:"
    INDEX 01 02:10:40
  TRACK 92 AUDIO
    TITLE "2:cjc116_3372"
    INDEX 01 02:11:12
  TRACK 93 AUDIO
    TITLE "0:"
    INDEX 01 02:12:09
  TRACK 94 AUDIO
    TITLE "2:cjc116_3373"
    INDEX 01 02:12:25
  TRACK 95 AUDIO
    TITLE "0:"
    INDEX 01 02:17:24
  TRACK 96 AUDIO
    TITLE "2:cjc116_3374"
    INDEX 01 02:17:69
  TRACK 97 AUDIO
    TITLE "0:"
    INDEX 01 02:18:70
  TRACK 98 AUDIO
    TITLE "2:cjc116_3375"
    INDEX 01 02:19:17
  TRACK 99 AUDIO
    TITLE "0:"
    INDEX 01 02:23:30
  TRACK 100 AUDIO
    TITLE "2:cjc116_3376"
    INDEX 01 02:23:74
  TRACK 101 AUDIO
    TITLE "0:"
    INDEX 01 02:25:08
  TRACK 102 AUDIO
    TITLE "2:cjc116_3377"
    INDEX 01 02:25:18
  TRACK 103 AUDIO
    TITLE "0:"
    INDEX 01 02:29:19
  TRACK 104 AUDIO
    TITLE "2:cjc116_3378"
    INDEX 01 02:29:70
  TRACK 105 AUDIO
    TITLE "0:"
    INDEX 01 02:31:06
  TRACK 106 AUDIO
    TITLE "2:cjc116_3379"
    INDEX 01 02:31:24
  TRACK 107 AUDIO
    TITLE "0:"
    INDEX 01 02:35:12
  TRACK 108 AUDIO
    TITLE "2:cjc116_3380"
    INDEX 01 02:35:49
  TRACK 109 AUDIO
    TITLE "0:"
    INDEX 01 02:36:59
  TRACK 110 AUDIO
    TITLE "2:cjc116_3381"
    INDEX 01 02:36:68
  TRACK 111 AUDIO
    TITLE "0:"
    INDEX 01 02:40:39
  TRACK 112 AUDIO
    TITLE "2:cjc116_3382"
    INDEX 01 02:41:13
  TRACK 113 AUDIO
    TITLE "0:"
    INDEX 01 02:42:18
  TRACK 114 AUDIO
    TITLE "2:cjc116_3383"
    INDEX 01 02:42:40
  TRACK 115 AUDIO
    TITLE "0:"
    INDEX 01 02:45:38
  TRACK 116 AUDIO
    TITLE "2:cjc116_3384"
    INDEX 01 02:46:18
  TRACK 117 AUDIO
    TITLE "0:"
    INDEX 01 02:47:27
  TRACK 118 AUDIO
    TITLE "2:cjc116_3385"
    INDEX 01 02:47:45
  TRACK 119 AUDIO
    TITLE "0:"
    INDEX 01 02:50:16
  TRACK 120 AUDIO
    TITLE "2:cjc116_3386"
    INDEX 01 02:50:59
  TRACK 121 AUDIO
    TITLE "0:"
    INDEX 01 02:51:62
  TRACK 122 AUDIO
    TITLE "2:cjc116_3387"
    INDEX 01 02:52:07
  TRACK 123 AUDIO
    TITLE "0:"
    INDEX 01 02:55:50
  TRACK 124 AUDIO
    TITLE "2:cjc116_3388"
    INDEX 01 02:56:22
  TRACK 125 AUDIO
    TITLE "0:"
    INDEX 01 02:57:39
  TRACK 126 AUDIO
    TITLE "2:cjc116_3389"
    INDEX 01 02:57:59
  TRACK 127 AUDIO
    TITLE "0:"
    INDEX 01 03:01:72
  TRACK 128 AUDIO
    TITLE "2:cjc116_3390"
    INDEX 01 03:02:50
  TRACK 129 AUDIO
    TITLE "0:"
    INDEX 01 03:03:48
  TRACK 130 AUDIO
    TITLE "2:cjc116_3391"
    INDEX 01 03:03:69
  TRACK 131 AUDIO
    TITLE "0:"
    INDEX 01 03:07:67
  TRACK 132 AUDIO
    TITLE "2:cjc116_3392"
    INDEX 01 03:08:39
  TRACK 133 AUDIO
    TITLE "0:"
    INDEX 01 03:09:60
  TRACK 134 AUDIO
    TITLE "2:cjc116_3393"
    INDEX 01 03:09:70
  TRACK 135 AUDIO
    TITLE "0:"
    INDEX 01 03:13:73
  TRACK 136 AUDIO
    TITLE "2:cjc116_3394"
    INDEX 01 03:14:36
  TRACK 137 AUDIO
    TITLE "0:"
    INDEX 01 03:15:45
  TRACK 138 AUDIO
    TITLE "2:cjc116_3395"
    INDEX 01 03:15:64
  TRACK 139 AUDIO
    TITLE "0:"
    INDEX 01 03:20:48
  TRACK 140 AUDIO
    TITLE "2:cjc116_3396"
    INDEX 01 03:21:12
  TRACK 141 AUDIO
    TITLE "0:"
    INDEX 01 03:22:18
  TRACK 142 AUDIO
    TITLE "2:cjc116_3397"
    INDEX 01 03:22:33
  TRACK 143 AUDIO
    TITLE "0:"
    INDEX 01 03:26:56
  TRACK 144 AUDIO
    TITLE "2:cjc116_3398"
    INDEX 01 03:27:25
  TRACK 145 AUDIO
    TITLE "0:"
    INDEX 01 03:28:28
  TRACK 146 AUDIO
    TITLE "2:cjc116_3399"
    INDEX 01 03:28:49
  TRACK 147 AUDIO
    TITLE "0:"
    INDEX 01 03:32:59
  TRACK 148 AUDIO
    TITLE "2:cjc116_3400"
    INDEX 01 03:33:21
  TRACK 149 AUDIO
    TITLE "0:"
    INDEX 01 03:34:42
  TRACK 150 AUDIO
    TITLE "2:cjc116_3401"
    INDEX 01 03:34:64
  TRACK 151 AUDIO
    TITLE "0:"
    INDEX 01 03:39:24
  TRACK 152 AUDIO
    TITLE "2:cjc116_3402"
    INDEX 01 03:39:67
  TRACK 153 AUDIO
    TITLE "0:"
    INDEX 01 03:41:09
  TRACK 154 AUDIO
    TITLE "2:cjc116_3403"
    INDEX 01 03:41:23
  TRACK 155 AUDIO
    TITLE "0:"
    INDEX 01 03:46:49
  TRACK 156 AUDIO
    TITLE "2:cjc116_3404"
    INDEX 01 03:47:17
  TRACK 157 AUDIO
    TITLE "0:"
    INDEX 01 03:48:25
  TRACK 158 AUDIO
    TITLE "2:cjc116_3405"
    INDEX 01 03:48:33
  TRACK 159 AUDIO
    TITLE "0:"
    INDEX 01 03:51:60
  TRACK 160 AUDIO
    TITLE "2:cjc116_3406"
    INDEX 01 03:52:26
  TRACK 161 AUDIO
    TITLE "0:"
    INDEX 01 03:53:32
  TRACK 162 AUDIO
    TITLE "2:cjc116_3407"
    INDEX 01 03:53:55
  TRACK 163 AUDIO
    TITLE "0:"
    INDEX 01 03:59:23
  TRACK 164 AUDIO
    TITLE "2:cjc116_3408"
    INDEX 01 03:59:64
  TRACK 165 AUDIO
    TITLE "0:"
    INDEX 01 04:00:71
  TRACK 166 AUDIO
    TITLE "2:cjc116_3409"
    INDEX 01 04:01:23
  TRACK 167 AUDIO
    TITLE "0:"
    INDEX 01 04:05:33
  TRACK 168 AUDIO
    TITLE "2:cjc116_3410"
    INDEX 01 04:06:13
  TRACK 169 AUDIO
    TITLE "0:"
    INDEX 01 04:07:38
  TRACK 170 AUDIO
    TITLE "2:cjc116_3411"
    INDEX 01 04:07:57
  TRACK 171 AUDIO
    TITLE "0:"
    INDEX 01 04:12:08
  TRACK 172 AUDIO
    TITLE "2:cjc116_3412"
    INDEX 01 04:12:49
  TRACK 173 AUDIO
    TITLE "0:"
    INDEX 01 04:14:05
  TRACK 174 AUDIO
    TITLE "2:cjc116_3413"
    INDEX 01 04:14:20
  TRACK 175 AUDIO
    TITLE "0:"
    INDEX 01 04:18:32
  TRACK 176 AUDIO
    TITLE "2:cjc116_3414"
    INDEX 01 04:19:06
  TRACK 177 AUDIO
    TITLE "0:"
    INDEX 01 04:20:27
  TRACK 178 AUDIO
    TITLE "2:cjc116_3415"
    INDEX 01 04:20:46
  TRACK 179 AUDIO
    TITLE "0:"
    INDEX 01 04:24:24
  TRACK 180 AUDIO
    TITLE "2:cjc116_3416"
    INDEX 01 04:24:62
  TRACK 181 AUDIO
    TITLE "0:"
    INDEX 01 04:26:06
  TRACK 182 AUDIO
    TITLE "2:cjc116_3417"
    INDEX 01 04:26:35
  TRACK 183 AUDIO
    TITLE "0:"
    INDEX 01 04:31:07
  TRACK 184 AUDIO
    TITLE "2:cjc116_3418"
    INDEX 01 04:31:48
  TRACK 185 AUDIO
    TITLE "0:"
    INDEX 01 04:32:57
  TRACK 186 AUDIO
    TITLE "2:cjc116_3419"
    INDEX 01 04:33:00
  TRACK 187 AUDIO
    TITLE "0:"
    INDEX 01 04:36:32
  TRACK 188 AUDIO
    TITLE "2:cjc116_3420"
    INDEX 01 04:36:71
  TRACK 189 AUDIO
    TITLE "0:"
    INDEX 01 04:38:11
  TRACK 190 AUDIO
    TITLE "2:cjc116_3421"
    INDEX 01 04:38:30
  TRACK 191 AUDIO
    TITLE "0:"
    INDEX 01 04:43:45
  TRACK 192 AUDIO
    TITLE "2:cjc116_3422"
    INDEX 01 04:44:10
  TRACK 193 AUDIO
    TITLE "0:"
    INDEX 01 04:45:17
  TRACK 194 AUDIO
    TITLE "2:cjc116_3423"
    INDEX 01 04:45:34
  TRACK 195 AUDIO
    TITLE "0:"
    INDEX 01 04:49:44
  TRACK 196 AUDIO
    TITLE "2:cjc116_3424"
    INDEX 01 04:50:30
  TRACK 197 AUDIO
    TITLE "0:"
    INDEX 01 04:51:37
  TRACK 198 AUDIO
    TITLE "2:cjc116_3425"
    INDEX 01 04:51:55
  TRACK 199 AUDIO
    TITLE "0:"
    INDEX 01 04:55:41
  TRACK 200 AUDIO
    TITLE "2:cjc116_3426"
    INDEX 01 04:56:13
  TRACK 201 AUDIO
    TITLE "0:"
    INDEX 01 04:57:28
  TRACK 202 AUDIO
    TITLE "2:cjc116_3427"
    INDEX 01 04:57:45
  TRACK 203 AUDIO
    TITLE "0:"
    INDEX 01 05:01:37
  TRACK 204 AUDIO
    TITLE "2:cjc116_3428"
    INDEX 01 05:02:07
  TRACK 205 AUDIO
    TITLE "0:"
    INDEX 01 05:03:21
  TRACK 206 AUDIO
    TITLE "2:cjc116_3429"
    INDEX 01 05:03:34
  TRACK 207 AUDIO
    TITLE "0:"
    INDEX 01 05:07:18
  TRACK 208 AUDIO
    TITLE "2:cjc116_3430"
    INDEX 01 05:07:63
  TRACK 209 AUDIO
    TITLE "0:"
    INDEX 01 05:08:71
  TRACK 210 AUDIO
    TITLE "2:cjc116_3431"
    INDEX 01 05:09:17
  TRACK 211 AUDIO
    TITLE "0:"
    INDEX 01 05:13:13
  TRACK 212 AUDIO
    TITLE "2:cjc116_3432"
    INDEX 01 05:13:72
  TRACK 213 AUDIO
    TITLE "0:"
    INDEX 01 05:15:06
  TRACK 214 AUDIO
    TITLE "2:cjc116_3433"
    INDEX 01 05:15:26
  TRACK 215 AUDIO
    TITLE "0:"
    INDEX 01 05:20:17
  TRACK 216 AUDIO
    TITLE "2:cjc116_3434"
    INDEX 01 05:21:01
  TRACK 217 AUDIO
    TITLE "0:"
    INDEX 01 05:22:22
  TRACK 218 AUDIO
    TITLE "2:cjc116_3435"
    INDEX 01 05:22:40
  TRACK 219 AUDIO
    TITLE "0:"
    INDEX 01 05:26:49
  TRACK 220 AUDIO
    TITLE "2:cjc116_3436"
    INDEX 01 05:27:11
  TRACK 221 AUDIO
    TITLE "0:"
    INDEX 01 05:28:26
  TRACK 222 AUDIO
    TITLE "2:cjc116_3437"
    INDEX 01 05:28:40
  TRACK 223 AUDIO
    TITLE "0:"
    INDEX 01 05:32:30
  TRACK 224 AUDIO
    TITLE "2:cjc116_3438"
    INDEX 01 05:32:69
  TRACK 225 AUDIO
    TITLE "0:"
    INDEX 01 05:34:27
  TRACK 226 AUDIO
    TITLE "2:cjc116_3439"
    INDEX 01 05:34:45
  TRACK 227 AUDIO
    TITLE "0:"
    INDEX 01 05:38:66
  TRACK 228 AUDIO
    TITLE "2:cjc116_3440"
    INDEX 01 05:39:34
  TRACK 229 AUDIO
    TITLE "0:"
    INDEX 01 05:40:61
  TRACK 230 AUDIO
    TITLE "2:cjc116_3441"
    INDEX 01 05:41:06
  TRACK 231 AUDIO
    TITLE "0:"
    INDEX 01 05:44:27
  TRACK 232 AUDIO
    TITLE "2:cjc116_3442"
    INDEX 01 05:44:69
  TRACK 233 AUDIO
    TITLE "0:"
    INDEX 01 05:45:72
  TRACK 234 AUDIO
    TITLE "2:cjc116_3443"
    INDEX 01 05:46:15
  TRACK 235 AUDIO
    TITLE "0:"
    INDEX 01 05:50:18
  TRACK 236 AUDIO
    TITLE "2:cjc116_3444"
    INDEX 01 05:50:61
  TRACK 237 AUDIO
    TITLE "0:"
    INDEX 01 05:51:67
  TRACK 238 AUDIO
    TITLE "2:cjc116_3445"
    INDEX 01 05:52:01
  TRACK 239 AUDIO
    TITLE "0:"
    INDEX 01 05:55:43
  TRACK 240 AUDIO
    TITLE "2:cjc116_3446"
    INDEX 01 05:56:15
  TRACK 241 AUDIO
    TITLE "0:"
    INDEX 01 05:57:10
  TRACK 242 AUDIO
    TITLE "2:cjc116_3447"
    INDEX 01 05:57:40
  TRACK 243 AUDIO
    TITLE "0:"
    INDEX 01 06:00:60
  TRACK 244 AUDIO
    TITLE "2:cjc116_3448"
    INDEX 01 06:01:30
  TRACK 245 AUDIO
    TITLE "0:"
    INDEX 01 06:02:51
  TRACK 246 AUDIO
    TITLE "2:cjc116_3449"
    INDEX 01 06:02:59
  TRACK 247 AUDIO
    TITLE "0:"
    INDEX 01 06:07:07
  TRACK 248 AUDIO
    TITLE "2:cjc116_3450"
    INDEX 01 06:07:50
  TRACK 249 AUDIO
    TITLE "0:"
    INDEX 01 06:08:51
  TRACK 250 AUDIO
    TITLE "2:cjc116_3451"
    INDEX 01 06:08:71
  TRACK 251 AUDIO
    TITLE "0:"
    INDEX 01 06:12:53
  TRACK 252 AUDIO
    TITLE "2:cjc116_3452"
    INDEX 01 06:13:19
  TRACK 253 AUDIO
    TITLE "0:"
    INDEX 01 06:14:21
  TRACK 254 AUDIO
    TITLE "2:cjc116_3453"
    INDEX 01 06:14:40
  TRACK 255 AUDIO
    TITLE "0:"
    INDEX 01 06:18:52
  TRACK 256 AUDIO
    TITLE "2:cjc116_3454"
    INDEX 01 06:19:30
  TRACK 257 AUDIO
    TITLE "0:"
    INDEX 01 06:20:45
  TRACK 258 AUDIO
    TITLE "2:cjc116_3455"
    INDEX 01 06:20:55
  TRACK 259 AUDIO
    TITLE "0:"
    INDEX 01 06:25:24
  TRACK 260 AUDIO
    TITLE "2:cjc116_3456"
    INDEX 01 06:26:06
  TRACK 261 AUDIO
    TITLE "0:"
    INDEX 01 06:27:04
  TRACK 262 AUDIO
    TITLE "2:cjc116_3457"
    INDEX 01 06:27:25
  TRACK 263 AUDIO
    TITLE "0:"
    INDEX 01 06:31:41
  TRACK 264 AUDIO
    TITLE "2:cjc116_3458"
    INDEX 01 06:32:07
  TRACK 265 AUDIO
    TITLE "0:"
    INDEX 01 06:33:04
  TRACK 266 AUDIO
    TITLE "2:cjc116_3459"
    INDEX 01 06:33:22
  TRACK 267 AUDIO
    TITLE "0:"
    INDEX 01 06:37:18
  TRACK 268 AUDIO
    TITLE "2:cjc116_3460"
    INDEX 01 06:37:63
  TRACK 269 AUDIO
    TITLE "0:"
    INDEX 01 06:39:09
  TRACK 270 AUDIO
    TITLE "2:cjc116_3461"
    INDEX 01 06:39:23
  TRACK 271 AUDIO
    TITLE "0:"
    INDEX 01 06:43:11
  TRACK 272 AUDIO
    TITLE "2:cjc116_3462"
    INDEX 01 06:43:54
  TRACK 273 AUDIO
    TITLE "0:"
    INDEX 01 06:44:67
  TRACK 274 AUDIO
    TITLE "2:cjc116_3463"
    INDEX 01 06:45:13
  TRACK 275 AUDIO
    TITLE "0:"
    INDEX 01 06:49:03
  TRACK 276 AUDIO
    TITLE "2:cjc116_3464"
    INDEX 01 06:49:45
  TRACK 277 AUDIO
    TITLE "0:"
    INDEX 01 06:50:50
  TRACK 278 AUDIO
    TITLE "2:cjc116_3465"
    INDEX 01 06:50:66
  TRACK 279 AUDIO
    TITLE "0:"
    INDEX 01 06:55:49
  TRACK 280 AUDIO
    TITLE "2:cjc116_3466"
    INDEX 01 06:56:17
  TRACK 281 AUDIO
    TITLE "0:"
    INDEX 01 06:57:24
  TRACK 282 AUDIO
    TITLE "2:cjc116_3467"
    INDEX 01 06:57:30
  TRACK 283 AUDIO
    TITLE "0:"
    INDEX 01 07:00:31
  TRACK 284 AUDIO
    TITLE "2:cjc116_3468"
    INDEX 01 07:00:72
  TRACK 285 AUDIO
    TITLE "0:"
    INDEX 01 07:02:12
  TRACK 286 AUDIO
    TITLE "2:cjc116_3469"
    INDEX 01 07:02:31
  TRACK 287 AUDIO
    TITLE "0:"
    INDEX 01 07:06:19
  TRACK 288 AUDIO
    TITLE "2:cjc116_3470"
    INDEX 01 07:06:63
  TRACK 289 AUDIO
    TITLE "0:"
    INDEX 01 07:07:68
  TRACK 290 AUDIO
    TITLE "2:cjc116_3471"
    INDEX 01 07:08:14
  TRACK 291 AUDIO
    TITLE "0:"
    INDEX 01 07:12:24
  TRACK 292 AUDIO
    TITLE "2:cjc116_3472"
    INDEX 01 07:12:73
  TRACK 293 AUDIO
    TITLE "0:"
    INDEX 01 07:14:03
  TRACK 294 AUDIO
    TITLE "2:cjc116_3473"
    INDEX 01 07:14:19
  TRACK 295 AUDIO
    TITLE "0:"
    INDEX 01 07:18:32
  TRACK 296 AUDIO
    TITLE "2:cjc116_3474"
    INDEX 01 07:19:12
  TRACK 297 AUDIO
    TITLE "0:"
    INDEX 01 07:20:18
  TRACK 298 AUDIO
    TITLE "2:cjc116_3475"
    INDEX 01 07:20:39
  TRACK 299 AUDIO
    TITLE "0:"
    INDEX 01 07:24:06
  TRACK 300 AUDIO
    TITLE "2:cjc116_3476"
    INDEX 01 07:24:45
  TRACK 301 AUDIO
    TITLE "0:"
    INDEX 01 07:25:56
  TRACK 302 AUDIO
    TITLE "2:cjc116_3477"
    INDEX 01 07:26:03
  TRACK 303 AUDIO
    TITLE "0:"
    INDEX 01 07:30:36
  TRACK 304 AUDIO
    TITLE "2:cjc116_3478"
    INDEX 01 07:31:02
  TRACK 305 AUDIO
    TITLE "0:"
    INDEX 01 07:32:11
  TRACK 306 AUDIO
    TITLE "2:cjc116_3479"
    INDEX 01 07:32:29
  TRACK 307 AUDIO
    TITLE "0:"
    INDEX 01 07:36:21
  TRACK 308 AUDIO
    TITLE "2:cjc116_3480"
    INDEX 01 07:36:66
  TRACK 309 AUDIO
    TITLE "0:"
    INDEX 01 07:38:00
  TRACK 310 AUDIO
    TITLE "2:cjc116_3481"
    INDEX 01 07:38:16
  TRACK 311 AUDIO
    TITLE "0:"
    INDEX 01 07:41:71
  TRACK 312 AUDIO
    TITLE "2:cjc116_3482"
    INDEX 01 07:42:43
  TRACK 313 AUDIO
    TITLE "0:"
    INDEX 01 07:43:48
  TRACK 314 AUDIO
    TITLE "2:cjc116_3483"
    INDEX 01 07:43:60
  TRACK 315 AUDIO
    TITLE "0:"
    INDEX 01 07:47:18
  TRACK 316 AUDIO
    TITLE "2:cjc116_3484"
    INDEX 01 07:47:60
  TRACK 317 AUDIO
    TITLE "0:"
    INDEX 01 07:48:59
  TRACK 318 AUDIO
    TITLE "2:cjc116_3485"
    INDEX 01 07:49:08
  TRACK 319 AUDIO
    TITLE "0:"
    INDEX 01 07:52:59
